<svg xmlns="http://www.w3.org/2000/svg" viewBox="0 0 32 32" fill="none">
  <rect width="32" height="32" rx="8" fill="#FFF8F5"/>
  <!-- tomato body -->
  <ellipse cx="16" cy="18" rx="11" ry="10" fill="#FF6B81"/>
  <ellipse cx="16" cy="17" rx="9" ry="8.5" fill="#FF7D92"/>
  <!-- highlight -->
  <ellipse cx="11" cy="13" rx="3" ry="2.5" fill="#FFFFFF" opacity="0.35"/>
  <!-- stem + leaf -->
  <path d="M16 5.5c-1.2 0-2.2.8-2.5 2l-.3 1.2c.8-.4 1.7-.6 2.8-.6s2 .2 2.8.6L18.5 7.5c-.3-1.2-1.3-2-2.5-2z" fill="#5CB85C"/>
  <ellipse cx="16" cy="7" rx="3.5" ry="2" fill="#7ED957"/>
  <path d="M16 8v3.5" stroke="#4A9E4A" stroke-width="1.2" stroke-linecap="round"/>
  <!-- kawaii face -->
  <circle cx="12" cy="17" r="1.6" fill="#2D2A2B"/>
  <circle cx="20" cy="17" r="1.6" fill="#2D2A2B"/>
  <circle cx="12.4" cy="16.5" r="0.45" fill="#fff"/>
  <circle cx="20.4" cy="16.5" r="0.45" fill="#fff"/>
  <path d="M13.5 20.5c1.2 1.4 3.8 1.4 5 0" stroke="#2D2A2B" stroke-width="1.1" stroke-linecap="round"/>
  <!-- blush -->
  <ellipse cx="9.5" cy="19" rx="1.4" ry="0.9" fill="#FF9EAE" opacity="0.75"/>
  <ellipse cx="22.5" cy="19" rx="1.4" ry="0.9" fill="#FF9EAE" opacity="0.75"/>
</svg>
